<svg xmlns="http://www.w3.org/2000/svg"  viewBox="0 0 64 64" width="64px" height="64px"><linearGradient id="Yfqu~iWMQUOfzAPDaZ90wa" x1="32" x2="32" y1="7" y2="57" gradientUnits="userSpaceOnUse"><stop offset="0" stop-color="#1a6dff"/><stop offset="1" stop-color="#c822ff"/></linearGradient><path fill="url(#Yfqu~iWMQUOfzAPDaZ90wa)" d="M32,9c12.682,0,23,10.318,23,23S44.682,55,32,55S9,44.682,9,32S19.318,9,32,9 M32,7	C18.193,7,7,18.193,7,32s11.193,25,25,25s25-11.193,25-25S45.807,7,32,7L32,7z"/><linearGradient id="Yfqu~iWMQUOfzAPDaZ90wb" x1="32" x2="32" y1="17.384" y2="51.281" gradientUnits="userSpaceOnUse"><stop offset="0" stop-color="#6dc7ff"/><stop offset="1" stop-color="#e6abff"/></linearGradient><path fill="url(#Yfqu~iWMQUOfzAPDaZ90wb)" d="M47.759,21.133c-1.043-1.485-2.252-2.72-3.654-3.665c-0.199-0.134-0.471-0.103-0.641,0.067	L32,28.999L20.536,17.535c-0.17-0.17-0.442-0.202-0.641-0.067c-1.385,0.939-2.6,2.165-3.654,3.663	c-0.141,0.2-0.115,0.478,0.058,0.651L29,34.484v16.088c0,0.246,0.18,0.462,0.423,0.502c1.718,0.277,3.436,0.277,5.154,0	C34.82,51.034,35,50.818,35,50.572V34.484l12.701-12.701C47.874,21.61,47.9,21.333,47.759,21.133z"/></svg>